<?xml version="1.0" encoding="UTF-8"?>
<svg id="Layer_1" xmlns="http://www.w3.org/2000/svg" version="1.1" viewBox="0 0 32 32">
  <!-- Generator: Adobe Illustrator 30.2.1, SVG Export Plug-In . SVG Version: 2.1.1 Build 1)  -->
  <defs>
    <style>
      .st0 {
        fill: #ff13f0;
      }
    </style>
  </defs>
  <path class="st0" d="M6.72,28.73v-3.51h-3.55s0-21.95,0-21.95h4.34s0,21.04,0,21.04h2.76v-7.06s3.59,0,3.59,0V6.78s4.3,0,4.3,0v10.46s3.59,0,3.59,0v7.06h2.76s0-21.04,0-21.04h4.3s0,21.95,0,21.95h-3.51v3.51s-4.34,0-4.34,0v-3.51h-3.59s0-7.03,0-7.03h-2.76v7.03s-3.59,0-3.59,0v3.51s-4.3,0-4.3,0Z"/>
</svg>